<mxfile host="app.diagrams.net" agent="Mozilla/5.0 (Windows NT 10.0; Win64; x64; rv:139.0) Gecko/20100101 Firefox/139.0" version="27.1.6">
  <diagram name="Страница — 1" id="fVi4FqF9Mn-2ooyqmKae">
    <mxGraphModel dx="1426" dy="813" grid="1" gridSize="10" guides="1" tooltips="1" connect="1" arrows="1" fold="1" page="1" pageScale="1" pageWidth="827" pageHeight="1169" math="0" shadow="0">
      <root>
        <mxCell id="0" />
        <mxCell id="1" parent="0" />
        <mxCell id="d32UBIWga5Pd8wa702hZ-18" value="Field" style="rounded=0;whiteSpace=wrap;html=1;" parent="1" vertex="1">
          <mxGeometry x="320" y="30" width="140" height="40" as="geometry" />
        </mxCell>
        <mxCell id="d32UBIWga5Pd8wa702hZ-19" value="+ __init__(value)│" style="rounded=0;whiteSpace=wrap;html=1;" parent="1" vertex="1">
          <mxGeometry x="320" y="90" width="140" height="20" as="geometry" />
        </mxCell>
        <mxCell id="d32UBIWga5Pd8wa702hZ-20" value="- value:str" style="rounded=0;whiteSpace=wrap;html=1;" parent="1" vertex="1">
          <mxGeometry x="320" y="70" width="140" height="20" as="geometry" />
        </mxCell>
        <mxCell id="d32UBIWga5Pd8wa702hZ-32" value="" style="edgeStyle=orthogonalEdgeStyle;rounded=0;orthogonalLoop=1;jettySize=auto;html=1;" parent="1" source="d32UBIWga5Pd8wa702hZ-21" target="d32UBIWga5Pd8wa702hZ-30" edge="1">
          <mxGeometry relative="1" as="geometry">
            <Array as="points">
              <mxPoint x="390" y="160" />
              <mxPoint x="390" y="160" />
            </Array>
          </mxGeometry>
        </mxCell>
        <mxCell id="d32UBIWga5Pd8wa702hZ-21" value="&lt;div&gt;+ __str__()&lt;/div&gt;" style="rounded=0;whiteSpace=wrap;html=1;" parent="1" vertex="1">
          <mxGeometry x="320" y="110" width="140" height="20" as="geometry" />
        </mxCell>
        <mxCell id="d32UBIWga5Pd8wa702hZ-28" value="Name" style="rounded=0;whiteSpace=wrap;html=1;" parent="1" vertex="1">
          <mxGeometry x="160" y="230" width="120" height="30" as="geometry" />
        </mxCell>
        <mxCell id="d32UBIWga5Pd8wa702hZ-30" value="&lt;div&gt;Phone&lt;/div&gt;" style="rounded=0;whiteSpace=wrap;html=1;" parent="1" vertex="1">
          <mxGeometry x="330" y="230" width="120" height="30" as="geometry" />
        </mxCell>
        <mxCell id="d32UBIWga5Pd8wa702hZ-31" value="Birthday" style="rounded=0;whiteSpace=wrap;html=1;" parent="1" vertex="1">
          <mxGeometry x="520" y="230" width="120" height="30" as="geometry" />
        </mxCell>
        <mxCell id="d32UBIWga5Pd8wa702hZ-33" value="" style="endArrow=classic;html=1;rounded=0;entryX=0.5;entryY=0;entryDx=0;entryDy=0;exitX=1;exitY=0.75;exitDx=0;exitDy=0;" parent="1" source="d32UBIWga5Pd8wa702hZ-21" target="d32UBIWga5Pd8wa702hZ-31" edge="1">
          <mxGeometry width="50" height="50" relative="1" as="geometry">
            <mxPoint x="440" y="140" as="sourcePoint" />
            <mxPoint x="440" y="210" as="targetPoint" />
          </mxGeometry>
        </mxCell>
        <mxCell id="d32UBIWga5Pd8wa702hZ-34" value="" style="endArrow=classic;html=1;rounded=0;exitX=0;exitY=1;exitDx=0;exitDy=0;entryX=0.5;entryY=0;entryDx=0;entryDy=0;" parent="1" source="d32UBIWga5Pd8wa702hZ-21" target="d32UBIWga5Pd8wa702hZ-28" edge="1">
          <mxGeometry width="50" height="50" relative="1" as="geometry">
            <mxPoint x="390" y="340" as="sourcePoint" />
            <mxPoint x="390" y="410" as="targetPoint" />
          </mxGeometry>
        </mxCell>
        <mxCell id="d32UBIWga5Pd8wa702hZ-38" value="" style="edgeStyle=orthogonalEdgeStyle;rounded=0;orthogonalLoop=1;jettySize=auto;html=1;" parent="1" source="d32UBIWga5Pd8wa702hZ-35" target="d32UBIWga5Pd8wa702hZ-37" edge="1">
          <mxGeometry relative="1" as="geometry">
            <Array as="points">
              <mxPoint x="390" y="330" />
              <mxPoint x="390" y="330" />
            </Array>
          </mxGeometry>
        </mxCell>
        <mxCell id="d32UBIWga5Pd8wa702hZ-35" value="+ __init__()" style="rounded=0;whiteSpace=wrap;html=1;" parent="1" vertex="1">
          <mxGeometry x="330" y="260" width="120" height="20" as="geometry" />
        </mxCell>
        <mxCell id="d32UBIWga5Pd8wa702hZ-36" value="+ __init__()" style="rounded=0;whiteSpace=wrap;html=1;" parent="1" vertex="1">
          <mxGeometry x="520" y="260" width="120" height="20" as="geometry" />
        </mxCell>
        <mxCell id="d32UBIWga5Pd8wa702hZ-37" value="Record" style="rounded=0;whiteSpace=wrap;html=1;" parent="1" vertex="1">
          <mxGeometry x="320" y="340" width="140" height="30" as="geometry" />
        </mxCell>
        <mxCell id="d32UBIWga5Pd8wa702hZ-42" value="" style="endArrow=classic;html=1;rounded=0;exitX=0.95;exitY=0.8;exitDx=0;exitDy=0;entryX=0;entryY=0;entryDx=0;entryDy=0;exitPerimeter=0;" parent="1" source="8IgaliCxjQx3PTBwp6ev-1" target="d32UBIWga5Pd8wa702hZ-37" edge="1">
          <mxGeometry width="50" height="50" relative="1" as="geometry">
            <mxPoint x="390" y="340" as="sourcePoint" />
            <mxPoint x="390" y="470" as="targetPoint" />
          </mxGeometry>
        </mxCell>
        <mxCell id="d32UBIWga5Pd8wa702hZ-43" value="" style="endArrow=classic;html=1;rounded=0;exitX=0;exitY=1;exitDx=0;exitDy=0;entryX=1;entryY=0;entryDx=0;entryDy=0;" parent="1" source="d32UBIWga5Pd8wa702hZ-36" target="d32UBIWga5Pd8wa702hZ-37" edge="1">
          <mxGeometry width="50" height="50" relative="1" as="geometry">
            <mxPoint x="390" y="340" as="sourcePoint" />
            <mxPoint x="370" y="410" as="targetPoint" />
          </mxGeometry>
        </mxCell>
        <mxCell id="d32UBIWga5Pd8wa702hZ-44" value="- name: Name" style="rounded=0;whiteSpace=wrap;html=1;" parent="1" vertex="1">
          <mxGeometry x="320" y="370" width="140" height="20" as="geometry" />
        </mxCell>
        <mxCell id="d32UBIWga5Pd8wa702hZ-45" value="- phones: list[Phone]" style="rounded=0;whiteSpace=wrap;html=1;" parent="1" vertex="1">
          <mxGeometry x="320" y="390" width="140" height="20" as="geometry" />
        </mxCell>
        <mxCell id="d32UBIWga5Pd8wa702hZ-46" value="- birthday: Birthday" style="rounded=0;whiteSpace=wrap;html=1;" parent="1" vertex="1">
          <mxGeometry x="320" y="410" width="140" height="20" as="geometry" />
        </mxCell>
        <mxCell id="d32UBIWga5Pd8wa702hZ-47" value="+ __init__(name)" style="rounded=0;whiteSpace=wrap;html=1;" parent="1" vertex="1">
          <mxGeometry x="320" y="430" width="140" height="20" as="geometry" />
        </mxCell>
        <mxCell id="d32UBIWga5Pd8wa702hZ-48" value="+ remove_phone()" style="rounded=0;whiteSpace=wrap;html=1;" parent="1" vertex="1">
          <mxGeometry x="320" y="490" width="140" height="20" as="geometry" />
        </mxCell>
        <mxCell id="d32UBIWga5Pd8wa702hZ-49" value="+ find_phone()" style="rounded=0;whiteSpace=wrap;html=1;" parent="1" vertex="1">
          <mxGeometry x="320" y="530" width="140" height="20" as="geometry" />
        </mxCell>
        <mxCell id="d32UBIWga5Pd8wa702hZ-50" value="+ add_phone()" style="rounded=0;whiteSpace=wrap;html=1;" parent="1" vertex="1">
          <mxGeometry x="320" y="470" width="140" height="20" as="geometry" />
        </mxCell>
        <mxCell id="d32UBIWga5Pd8wa702hZ-51" value="+ edit_phone()" style="rounded=0;whiteSpace=wrap;html=1;" parent="1" vertex="1">
          <mxGeometry x="320" y="510" width="140" height="20" as="geometry" />
        </mxCell>
        <mxCell id="d32UBIWga5Pd8wa702hZ-52" value="+ add_birthday()" style="rounded=0;whiteSpace=wrap;html=1;" parent="1" vertex="1">
          <mxGeometry x="320" y="450" width="140" height="20" as="geometry" />
        </mxCell>
        <mxCell id="d32UBIWga5Pd8wa702hZ-53" value="1" style="endArrow=open;html=1;endSize=12;startArrow=diamondThin;startSize=14;startFill=1;edgeStyle=orthogonalEdgeStyle;align=left;verticalAlign=bottom;rounded=0;exitX=0.5;exitY=1;exitDx=0;exitDy=0;entryX=0.5;entryY=0;entryDx=0;entryDy=0;" parent="1" source="d32UBIWga5Pd8wa702hZ-49" target="d32UBIWga5Pd8wa702hZ-54" edge="1">
          <mxGeometry x="-1" y="3" relative="1" as="geometry">
            <mxPoint x="330" y="585" as="sourcePoint" />
            <mxPoint x="400" y="640" as="targetPoint" />
          </mxGeometry>
        </mxCell>
        <mxCell id="d32UBIWga5Pd8wa702hZ-54" value="AddressBook" style="rounded=0;whiteSpace=wrap;html=1;" parent="1" vertex="1">
          <mxGeometry x="320" y="640" width="140" height="30" as="geometry" />
        </mxCell>
        <mxCell id="d32UBIWga5Pd8wa702hZ-55" value="- data: Dict[str, record]" style="rounded=0;whiteSpace=wrap;html=1;" parent="1" vertex="1">
          <mxGeometry x="320" y="670" width="140" height="20" as="geometry" />
        </mxCell>
        <mxCell id="d32UBIWga5Pd8wa702hZ-56" value="+ add_record(record: Record)" style="rounded=0;whiteSpace=wrap;html=1;" parent="1" vertex="1">
          <mxGeometry x="320" y="690" width="140" height="40" as="geometry" />
        </mxCell>
        <mxCell id="d32UBIWga5Pd8wa702hZ-57" value="+ delete(name: str)" style="rounded=0;whiteSpace=wrap;html=1;" parent="1" vertex="1">
          <mxGeometry x="320" y="730" width="140" height="20" as="geometry" />
        </mxCell>
        <mxCell id="d32UBIWga5Pd8wa702hZ-58" value="+ finde(name: str)" style="rounded=0;whiteSpace=wrap;html=1;" parent="1" vertex="1">
          <mxGeometry x="320" y="750" width="140" height="20" as="geometry" />
        </mxCell>
        <mxCell id="d32UBIWga5Pd8wa702hZ-59" value="+ get_upcoming_birthday()" style="rounded=0;whiteSpace=wrap;html=1;" parent="1" vertex="1">
          <mxGeometry x="320" y="770" width="140" height="40" as="geometry" />
        </mxCell>
        <mxCell id="d32UBIWga5Pd8wa702hZ-60" value="+ __str__()" style="rounded=0;whiteSpace=wrap;html=1;" parent="1" vertex="1">
          <mxGeometry x="320" y="810" width="140" height="20" as="geometry" />
        </mxCell>
        <mxCell id="8IgaliCxjQx3PTBwp6ev-1" value="" style="rounded=0;whiteSpace=wrap;html=1;" vertex="1" parent="1">
          <mxGeometry x="160" y="260" width="120" height="20" as="geometry" />
        </mxCell>
      </root>
    </mxGraphModel>
  </diagram>
</mxfile>
